# xmcd
#
# Track frame offsets:
#	150
#	18653
#	34006
#	48692
#	64984
#	81748
#	95271
#	107897
#	128121
#	146434
#	161651
#	177112
#	195032
#	213732
#	231197
#	246145
#
# Disc length: 3471 seconds
# Revision: 0
# Processed by: cddbd v1.5.2PL0 Copyright (c) Steve Scherf et al.
# Submitted via: dBpowerAMP V12.0
#
DISCID=e30d8d10
DTITLE=Various Artist - Aces - The Definitive Capitol Collection [CD 3)
DYEAR=2018
DGENRE=Country
TTITLE0=Suzy Bogguss - Hey Cinderella
TTITLE1=Suzy Bogguss - Diamonds And Tears
TTITLE2=Suzy Bogguss - Heartache
TTITLE3=Suzy Bogguss - Cold Day In July
TTITLE4=Suzy Bogguss - In The Day
TTITLE5=Suzy Bogguss - Yellow River Road
TTITLE6=Suzy Bogguss - Wild Horses
TTITLE7=Suzy Bogguss - True North
TTITLE8=Suzy Bogguss featuring Chet Atkins - Sorry Seems To Be The Hardest Word
TTITLE9=Suzy Bogguss - Just Like The Weather
TTITLE10=Suzy Bogguss - You Wouldn't Say That To A Stranger
TTITLE11=Suzy Bogguss - Someday Soon
TTITLE12=Suzy Bogguss - Night Rider's Lament
TTITLE13=Suzy Bogguss - Fear Of Flying
TTITLE14=Suzy Bogguss - Moonlight And Roses
TTITLE15=Suzy Bogguss - Hopeless Romantic
EXTD=
EXTT0=
EXTT1=
EXTT2=
EXTT3=
EXTT4=
EXTT5=
EXTT6=
EXTT7=
EXTT8=
EXTT9=
EXTT10=
EXTT11=
EXTT12=
EXTT13=
EXTT14=
EXTT15=
PLAYORDER=
